# xmcd
#
# Track frame offsets: 
#        150
#        768
#        15349
#        18125
#        52233
#        64611
#        89617
#        106763
#        108841
#        124076
#        126023
#        135476
#        163614
#
# Disc length: 2459 seconds
#
# Revision: 0
# Processed by: cddbd v1.5.1PL0 Copyright (c) Steve Scherf et al.
# Submitted via: ExactAudioCopy v0.95a3
#
DISCID=9209990d
DTITLE=Jimi Hendrix Experience - The VPRO Archive - It Must Be Dusty!
DYEAR=2004
DGENRE=Blues
TTITLE0=Introduction
TTITLE1=Foxy Lady
TTITLE2=Spoken word
TTITLE3=Catfish Blues
TTITLE4=Purple Haze false start - Tune-up
TTITLE5=Purple Haze
TTITLE6=Purple Haze
TTITLE7=Introduction
TTITLE8=Stone Free
TTITLE9=Interview
TTITLE10=Mockingbird
TTITLE11=Voodoo Child (Slight Return)
TTITLE12=Mockingbird (MPEG1 video data)
EXTD=InDeeD Music, IDDCD 025E
EXTT0=
EXTT1=
EXTT2=
EXTT3=
EXTT4=
EXTT5=
EXTT6=
EXTT7=
EXTT8=
EXTT9=
EXTT10=
EXTT11=
EXTT12=
PLAYORDER=
